{
    "asset" : {
        "generator" : "Khronos glTF Blender I/O v1.2.75",
        "version" : "2.0"
    },
    "extensionsUsed" : [
        "KHR_materials_clearcoat"
    ],
    "scene" : 0,
    "scenes" : [
        {
            "extras" : {
                "glTF2ExportSettings" : {
                    "export_cameras" : 1,
                    "export_extras" : 1,
                    "export_format" : "GLTF_SEPARATE",
                    "export_lights" : 1
                }
            },
            "name" : "Scene",
            "nodes" : [
                0,
                1,
                3,
                4,
                5,
                6,
                7
            ]
        }
    ],
    "nodes" : [
        {
            "mesh" : 0,
            "name" : "\u9646\u5730",
            "scale" : [
                10.000000953674316,
                2.327779769897461,
                10.000000953674316
            ]
        },
        {
            "mesh" : 1,
            "name" : "\u6d77",
            "scale" : [
                5.000000476837158,
                1,
                10.000000953674316
            ],
            "translation" : [
                5.000000476837158,
                0,
                0
            ]
        },
        {
            "camera" : 0,
            "name" : "\u76f8\u673a_Orientation",
            "rotation" : [
                -0.7071067690849304,
                0,
                0,
                0.7071067690849304
            ]
        },
        {
            "children" : [
                2
            ],
            "name" : "\u76f8\u673a",
            "rotation" : [
                0.36715561151504517,
                -0.030685950070619583,
                0.2595427334308624,
                0.8926884531974792
            ],
            "scale" : [
                0.29654133319854736,
                0.296541303396225,
                0.296541303396225
            ],
            "translation" : [
                -10.061765670776367,
                21.98303985595703,
                21.776355743408203
            ]
        },
        {
            "mesh" : 2,
            "name" : "\u6811\u5e72",
            "scale" : [
                0.3499999940395355,
                2.7586610317230225,
                0.3499999940395355
            ],
            "translation" : [
                -6.575758457183838,
                7.453959941864014,
                0.7305507659912109
            ]
        },
        {
            "mesh" : 3,
            "name" : "\u9e2d\u5b50.004",
            "rotation" : [
                0.05309091508388519,
                -0.3352028429508209,
                -0.147149920463562,
                0.9290679693222046
            ],
            "scale" : [
                0.09765622764825821,
                0.22841370105743408,
                0.22841370105743408
            ],
            "translation" : [
                5.789743900299072,
                4.0847930908203125,
                -4.341689109802246
            ]
        },
        {
            "mesh" : 4,
            "name" : "\u9e2d\u5b50.001",
            "rotation" : [
                0.14933127164840698,
                -0.9428405165672302,
                -0.046603817492723465,
                0.2942449152469635
            ],
            "scale" : [
                0.09765622764825821,
                0.22841370105743408,
                0.22841370105743408
            ],
            "translation" : [
                4.474967956542969,
                4.512557506561279,
                0.2368912696838379
            ]
        },
        {
            "mesh" : 5,
            "name" : "\u9e2d\u5b50.002",
            "rotation" : [
                -0.12643516063690186,
                0.7982801795005798,
                -0.09211890399456024,
                0.5816158652305603
            ],
            "scale" : [
                0.09765622764825821,
                0.22841370105743408,
                0.22841370105743408
            ],
            "translation" : [
                -2.6452527046203613,
                5.171227931976318,
                -4.717720031738281
            ]
        }
    ],
    "cameras" : [
        {
            "name" : "\u76f8\u673a",
            "perspective" : {
                "yfov" : 0.14178927032560454,
                "zfar" : 1000,
                "znear" : 0.10000000149011612
            },
            "type" : "perspective"
        }
    ],
    "materials" : [
        {
            "doubleSided" : true,
            "emissiveFactor" : [
                0,
                0,
                0
            ],
            "extensions" : {
                "KHR_materials_clearcoat" : {
                    "clearcoatFactor" : 0.07975459843873978,
                    "clearcoatRoughnessFactor" : 0
                }
            },
            "name" : "\u6750\u8d28.001",
            "pbrMetallicRoughness" : {
                "baseColorTexture" : {
                    "index" : 0,
                    "texCoord" : 0
                },
                "metallicFactor" : 0.48773008584976196,
                "roughnessFactor" : 0.6717791557312012
            }
        },
        {
            "doubleSided" : true,
            "emissiveFactor" : [
                0,
                0,
                0
            ],
            "extensions" : {
                "KHR_materials_clearcoat" : {
                    "clearcoatFactor" : 0.33030301332473755,
                    "clearcoatRoughnessFactor" : 0
                }
            },
            "name" : "\u6750\u8d28.002",
            "pbrMetallicRoughness" : {
                "baseColorTexture" : {
                    "index" : 1,
                    "texCoord" : 0
                },
                "metallicFactor" : 0.23333331942558289,
                "roughnessFactor" : 0.3121212124824524
            }
        },
        {
            "doubleSided" : true,
            "emissiveFactor" : [
                0,
                0,
                0
            ],
            "name" : "\u6750\u8d28",
            "pbrMetallicRoughness" : {
                "baseColorTexture" : {
                    "index" : 2,
                    "texCoord" : 0
                },
                "metallicFactor" : 0,
                "roughnessFactor" : 0.35757577419281006
            }
        }
    ],
    "meshes" : [
        {
            "name" : "\u7acb\u65b9\u4f53",
            "primitives" : [
                {
                    "attributes" : {
                        "POSITION" : 0,
                        "NORMAL" : 1,
                        "TEXCOORD_0" : 2
                    },
                    "indices" : 3,
                    "material" : 0
                }
            ]
        },
        {
            "name" : "\u5e73\u9762",
            "primitives" : [
                {
                    "attributes" : {
                        "POSITION" : 4,
                        "NORMAL" : 5,
                        "TEXCOORD_0" : 6
                    },
                    "indices" : 7,
                    "material" : 1
                }
            ]
        },
        {
            "name" : "\u67f1\u4f53",
            "primitives" : [
                {
                    "attributes" : {
                        "POSITION" : 8,
                        "NORMAL" : 9,
                        "TEXCOORD_0" : 10
                    },
                    "indices" : 11,
                    "material" : 0
                }
            ]
        },
        {
            "name" : "\u7acb\u65b9\u4f53.005",
            "primitives" : [
                {
                    "attributes" : {
                        "POSITION" : 12,
                        "NORMAL" : 13,
                        "TEXCOORD_0" : 14
                    },
                    "indices" : 15,
                    "material" : 2
                }
            ]
        },
        {
            "name" : "\u7acb\u65b9\u4f53.006",
            "primitives" : [
                {
                    "attributes" : {
                        "POSITION" : 16,
                        "NORMAL" : 17,
                        "TEXCOORD_0" : 18
                    },
                    "indices" : 15,
                    "material" : 2
                }
            ]
        },
        {
            "name" : "\u7acb\u65b9\u4f53.007",
            "primitives" : [
                {
                    "attributes" : {
                        "POSITION" : 19,
                        "NORMAL" : 20,
                        "TEXCOORD_0" : 21
                    },
                    "indices" : 15,
                    "material" : 2
                }
            ]
        }
    ],
    "textures" : [
        {
            "source" : 0
        },
        {
            "source" : 0
        },
        {
            "source" : 1
        }
    ],
    "images" : [
        {
            "mimeType" : "image/png",
            "name" : "haidao",
            "uri" : "haidao.png"
        },
        {
            "mimeType" : "image/png",
            "name" : "yazitt",
            "uri" : "yazitt.png"
        }
    ],
    "accessors" : [
        {
            "bufferView" : 0,
            "componentType" : 5126,
            "count" : 1267,
            "max" : [
                1.0020395517349243,
                2.0170717239379883,
                1.0018945932388306
            ],
            "min" : [
                -1.0020395517349243,
                -0.17980799078941345,
                -1.002184510231018
            ],
            "type" : "VEC3"
        },
        {
            "bufferView" : 1,
            "componentType" : 5126,
            "count" : 1267,
            "type" : "VEC3"
        },
        {
            "bufferView" : 2,
            "componentType" : 5126,
            "count" : 1267,
            "type" : "VEC2"
        },
        {
            "bufferView" : 3,
            "componentType" : 5123,
            "count" : 6972,
            "type" : "SCALAR"
        },
        {
            "bufferView" : 4,
            "componentType" : 5126,
            "count" : 1180,
            "max" : [
                1,
                4.3490824699401855,
                1
            ],
            "min" : [
                -1.1944615840911865,
                0,
                -1
            ],
            "type" : "VEC3"
        },
        {
            "bufferView" : 5,
            "componentType" : 5126,
            "count" : 1180,
            "type" : "VEC3"
        },
        {
            "bufferView" : 6,
            "componentType" : 5126,
            "count" : 1180,
            "type" : "VEC2"
        },
        {
            "bufferView" : 7,
            "componentType" : 5123,
            "count" : 7068,
            "type" : "SCALAR"
        },
        {
            "bufferView" : 8,
            "componentType" : 5126,
            "count" : 229,
            "max" : [
                5.015231132507324,
                2.2812106609344482,
                5.199460983276367
            ],
            "min" : [
                -4.981651782989502,
                -1,
                -4.797422409057617
            ],
            "type" : "VEC3"
        },
        {
            "bufferView" : 9,
            "componentType" : 5126,
            "count" : 229,
            "type" : "VEC3"
        },
        {
            "bufferView" : 10,
            "componentType" : 5126,
            "count" : 229,
            "type" : "VEC2"
        },
        {
            "bufferView" : 11,
            "componentType" : 5123,
            "count" : 642,
            "type" : "SCALAR"
        },
        {
            "bufferView" : 12,
            "componentType" : 5126,
            "count" : 102454,
            "max" : [
                0.9698435068130493,
                6.21954870223999,
                4.532023906707764
            ],
            "min" : [
                -19.023902893066406,
                -3.6146225929260254,
                -4.68575382232666
            ],
            "type" : "VEC3"
        },
        {
            "bufferView" : 13,
            "componentType" : 5126,
            "count" : 102454,
            "type" : "VEC3"
        },
        {
            "bufferView" : 14,
            "componentType" : 5126,
            "count" : 102454,
            "type" : "VEC2"
        },
        {
            "bufferView" : 15,
            "componentType" : 5125,
            "count" : 495702,
            "type" : "SCALAR"
        },
        {
            "bufferView" : 16,
            "componentType" : 5126,
            "count" : 102454,
            "max" : [
                0.9698435068130493,
                6.21954870223999,
                4.532023906707764
            ],
            "min" : [
                -19.023902893066406,
                -3.6146225929260254,
                -4.68575382232666
            ],
            "type" : "VEC3"
        },
        {
            "bufferView" : 17,
            "componentType" : 5126,
            "count" : 102454,
            "type" : "VEC3"
        },
        {
            "bufferView" : 18,
            "componentType" : 5126,
            "count" : 102454,
            "type" : "VEC2"
        },
        {
            "bufferView" : 19,
            "componentType" : 5126,
            "count" : 102454,
            "max" : [
                0.9698435068130493,
                6.21954870223999,
                4.532023906707764
            ],
            "min" : [
                -19.023902893066406,
                -3.6146225929260254,
                -4.68575382232666
            ],
            "type" : "VEC3"
        },
        {
            "bufferView" : 20,
            "componentType" : 5126,
            "count" : 102454,
            "type" : "VEC3"
        },
        {
            "bufferView" : 21,
            "componentType" : 5126,
            "count" : 102454,
            "type" : "VEC2"
        }
    ],
    "bufferViews" : [
        {
            "buffer" : 0,
            "byteLength" : 15204,
            "byteOffset" : 0
        },
        {
            "buffer" : 0,
            "byteLength" : 15204,
            "byteOffset" : 15204
        },
        {
            "buffer" : 0,
            "byteLength" : 10136,
            "byteOffset" : 30408
        },
        {
            "buffer" : 0,
            "byteLength" : 13944,
            "byteOffset" : 40544
        },
        {
            "buffer" : 0,
            "byteLength" : 14160,
            "byteOffset" : 54488
        },
        {
            "buffer" : 0,
            "byteLength" : 14160,
            "byteOffset" : 68648
        },
        {
            "buffer" : 0,
            "byteLength" : 9440,
            "byteOffset" : 82808
        },
        {
            "buffer" : 0,
            "byteLength" : 14136,
            "byteOffset" : 92248
        },
        {
            "buffer" : 0,
            "byteLength" : 2748,
            "byteOffset" : 106384
        },
        {
            "buffer" : 0,
            "byteLength" : 2748,
            "byteOffset" : 109132
        },
        {
            "buffer" : 0,
            "byteLength" : 1832,
            "byteOffset" : 111880
        },
        {
            "buffer" : 0,
            "byteLength" : 1284,
            "byteOffset" : 113712
        },
        {
            "buffer" : 0,
            "byteLength" : 1229448,
            "byteOffset" : 114996
        },
        {
            "buffer" : 0,
            "byteLength" : 1229448,
            "byteOffset" : 1344444
        },
        {
            "buffer" : 0,
            "byteLength" : 819632,
            "byteOffset" : 2573892
        },
        {
            "buffer" : 0,
            "byteLength" : 1982808,
            "byteOffset" : 3393524
        },
        {
            "buffer" : 0,
            "byteLength" : 1229448,
            "byteOffset" : 5376332
        },
        {
            "buffer" : 0,
            "byteLength" : 1229448,
            "byteOffset" : 6605780
        },
        {
            "buffer" : 0,
            "byteLength" : 819632,
            "byteOffset" : 7835228
        },
        {
            "buffer" : 0,
            "byteLength" : 1229448,
            "byteOffset" : 8654860
        },
        {
            "buffer" : 0,
            "byteLength" : 1229448,
            "byteOffset" : 9884308
        },
        {
            "buffer" : 0,
            "byteLength" : 819632,
            "byteOffset" : 11113756
        }
    ],
    "buffers" : [
        {
            "byteLength" : 11933388,
            "uri" : "yazi.bin"
        }
    ]
}
