{
    "asset" : {
        "generator" : "Khronos glTF Blender I/O v1.2.75",
        "version" : "2.0"
    },
    "scene" : 0,
    "scenes" : [
        {
            "extras" : {
                "glTF2ExportSettings" : {
                    "export_cameras" : 1,
                    "export_extras" : 1,
                    "export_format" : "GLTF_SEPARATE",
                    "export_lights" : 1
                }
            },
            "name" : "Scene",
            "nodes" : [
                0
            ]
        }
    ],
    "nodes" : [
        {
            "mesh" : 0,
            "name" : "\u9e2d\u5b50.002",
            "rotation" : [
                -0.12643516063690186,
                0.7982801795005798,
                -0.09211890399456024,
                0.5816158652305603
            ],
            "scale" : [
                0.09765622764825821,
                0.22841370105743408,
                0.22841370105743408
            ]
        }
    ],
    "materials" : [
        {
            "doubleSided" : true,
            "emissiveFactor" : [
                0,
                0,
                0
            ],
            "name" : "\u6750\u8d28",
            "pbrMetallicRoughness" : {
                "baseColorTexture" : {
                    "index" : 0,
                    "texCoord" : 0
                },
                "metallicFactor" : 0,
                "roughnessFactor" : 0.35757577419281006
            }
        }
    ],
    "meshes" : [
        {
            "name" : "\u7acb\u65b9\u4f53.007",
            "primitives" : [
                {
                    "attributes" : {
                        "POSITION" : 0,
                        "NORMAL" : 1,
                        "TEXCOORD_0" : 2
                    },
                    "indices" : 3,
                    "material" : 0
                }
            ]
        }
    ],
    "textures" : [
        {
            "source" : 0
        }
    ],
    "images" : [
        {
            "mimeType" : "image/png",
            "name" : "yazitt",
            "uri" : "yazitt.png"
        }
    ],
    "accessors" : [
        {
            "bufferView" : 0,
            "componentType" : 5126,
            "count" : 102454,
            "max" : [
                0.9698435068130493,
                6.21954870223999,
                4.532023906707764
            ],
            "min" : [
                -19.023902893066406,
                -3.6146225929260254,
                -4.68575382232666
            ],
            "type" : "VEC3"
        },
        {
            "bufferView" : 1,
            "componentType" : 5126,
            "count" : 102454,
            "type" : "VEC3"
        },
        {
            "bufferView" : 2,
            "componentType" : 5126,
            "count" : 102454,
            "type" : "VEC2"
        },
        {
            "bufferView" : 3,
            "componentType" : 5125,
            "count" : 495702,
            "type" : "SCALAR"
        }
    ],
    "bufferViews" : [
        {
            "buffer" : 0,
            "byteLength" : 1229448,
            "byteOffset" : 0
        },
        {
            "buffer" : 0,
            "byteLength" : 1229448,
            "byteOffset" : 1229448
        },
        {
            "buffer" : 0,
            "byteLength" : 819632,
            "byteOffset" : 2458896
        },
        {
            "buffer" : 0,
            "byteLength" : 1982808,
            "byteOffset" : 3278528
        }
    ],
    "buffers" : [
        {
            "byteLength" : 5261336,
            "uri" : "yazi.bin"
        }
    ]
}
